<svg width="289" height="289" viewBox="0 0 289 289" fill="none" xmlns="http://www.w3.org/2000/svg">
<mask id="path-1-inside-1_64_1296" fill="white">
<path d="M144 145H72V217H144V289H0V73H144V145Z"/>
</mask>
<path d="M144 145V146H145V145H144ZM72 145V144H71V145H72ZM72 217H71V218H72V217ZM144 217H145V216H144V217ZM144 289V290H145V289H144ZM0 289H-1V290H0V289ZM0 73V72H-1V73H0ZM144 73H145V72H144V73ZM144 145V144H72V145V146H144V145ZM72 145H71V217H72H73V145H72ZM72 217V218H144V217V216H72V217ZM144 217H143V289H144H145V217H144ZM144 289V288H0V289V290H144V289ZM0 289H1V73H0H-1V289H0ZM0 73V74H144V73V72H0V73ZM144 73H143V145H144H145V73H144Z" fill="#C778DD" mask="url(#path-1-inside-1_64_1296)"/>
<mask id="path-3-outside-2_64_1296" maskUnits="userSpaceOnUse" x="143" y="0" width="146" height="218" fill="black">
<rect fill="white" x="143" width="146" height="218"/>
<path d="M288 217H144V145H216V73H144V1H288V217Z"/>
</mask>
<path d="M288 217V218H289V217H288ZM144 217H143V218H144V217ZM144 145V144H143V145H144ZM216 145V146H217V145H216ZM216 73H217V72H216V73ZM144 73H143V74H144V73ZM144 1V0H143V1H144ZM288 1H289V0H288V1ZM288 217V216H144V217V218H288V217ZM144 217H145V145H144H143V217H144ZM144 145V146H216V145V144H144V145ZM216 145H217V73H216H215V145H216ZM216 73V72H144V73V74H216V73ZM144 73H145V1H144H143V73H144ZM144 1V2H288V1V0H144V1ZM288 1H287V217H288H289V1H288Z" fill="#C778DD" mask="url(#path-3-outside-2_64_1296)"/>
</svg>
